<svg width="152" height="104" viewBox="0 0 152 104" fill="none" xmlns="http://www.w3.org/2000/svg">
<g id="Cloud" filter="url(#filter0_dd_17843_93)">
<path id="Background" fill-rule="evenodd" clip-rule="evenodd" d="M77.6 0C66.8273 0 57.2978 5.32329 51.4987 13.4829C49.605 13.0363 47.6301 12.8 45.6 12.8C31.4615 12.8 20 24.2615 20 38.4C20 52.5385 31.4615 64 45.6 64L45.62 64H109.6C121.971 64 132 53.9712 132 41.6C132 29.2288 121.971 19.2 109.6 19.2C108.721 19.2 107.854 19.2506 107.002 19.349C102.098 7.9677 90.7797 0 77.6 0Z" fill="#F9F5FF"/>
<ellipse id="Circle" cx="45.6" cy="38.4" rx="25.6" ry="25.6" fill="url(#paint0_linear_17843_93)"/>
<circle id="Circle_2" cx="77.6" cy="32" r="32" fill="url(#paint1_linear_17843_93)"/>
<ellipse id="Circle_3" cx="109.6" cy="41.5999" rx="22.4" ry="22.4" fill="url(#paint2_linear_17843_93)"/>
</g>
<defs>
<filter id="filter0_dd_17843_93" x="0" y="0" width="152" height="104" filterUnits="userSpaceOnUse" color-interpolation-filters="sRGB">
<feFlood flood-opacity="0" result="BackgroundImageFix"/>
<feColorMatrix in="SourceAlpha" type="matrix" values="0 0 0 0 0 0 0 0 0 0 0 0 0 0 0 0 0 0 127 0" result="hardAlpha"/>
<feMorphology radius="4" operator="erode" in="SourceAlpha" result="effect1_dropShadow_17843_93"/>
<feOffset dy="8"/>
<feGaussianBlur stdDeviation="4"/>
<feColorMatrix type="matrix" values="0 0 0 0 0.0627451 0 0 0 0 0.0941176 0 0 0 0 0.156863 0 0 0 0.04 0"/>
<feBlend mode="normal" in2="BackgroundImageFix" result="effect1_dropShadow_17843_93"/>
<feColorMatrix in="SourceAlpha" type="matrix" values="0 0 0 0 0 0 0 0 0 0 0 0 0 0 0 0 0 0 127 0" result="hardAlpha"/>
<feMorphology radius="4" operator="erode" in="SourceAlpha" result="effect2_dropShadow_17843_93"/>
<feOffset dy="20"/>
<feGaussianBlur stdDeviation="12"/>
<feColorMatrix type="matrix" values="0 0 0 0 0.0627451 0 0 0 0 0.0941176 0 0 0 0 0.156863 0 0 0 0.1 0"/>
<feBlend mode="normal" in2="effect1_dropShadow_17843_93" result="effect2_dropShadow_17843_93"/>
<feBlend mode="normal" in="SourceGraphic" in2="effect2_dropShadow_17843_93" result="shape"/>
</filter>
<linearGradient id="paint0_linear_17843_93" x1="25.9429" y1="21.4858" x2="71.2" y2="64" gradientUnits="userSpaceOnUse">
<stop stop-color="#E9D7FE"/>
<stop offset="0.350715" stop-color="white" stop-opacity="0"/>
</linearGradient>
<linearGradient id="paint1_linear_17843_93" x1="53.0286" y1="10.8571" x2="109.6" y2="64" gradientUnits="userSpaceOnUse">
<stop stop-color="#E9D7FE"/>
<stop offset="0.350715" stop-color="white" stop-opacity="0"/>
</linearGradient>
<linearGradient id="paint2_linear_17843_93" x1="92.4" y1="26.8" x2="132" y2="63.9999" gradientUnits="userSpaceOnUse">
<stop stop-color="#E9D7FE"/>
<stop offset="0.350715" stop-color="white" stop-opacity="0"/>
</linearGradient>
</defs>
</svg>
